<svg xmlns="http://www.w3.org/2000/svg" xmlns:xlink="http://www.w3.org/1999/xlink" width="216" zoomAndPan="magnify" viewBox="0 0 162 34.499999" height="46" preserveAspectRatio="xMidYMid meet" version="1.0"><defs><g/><clipPath id="32f5566e7f"><path d="M 23.101562 4.007812 L 49.089844 4.007812 L 49.089844 29.996094 L 23.101562 29.996094 Z M 23.101562 4.007812 " clip-rule="nonzero"/></clipPath><clipPath id="4e6e7f1d93"><path d="M 36.09375 4.007812 C 28.917969 4.007812 23.101562 9.828125 23.101562 17.003906 C 23.101562 24.179688 28.917969 29.996094 36.09375 29.996094 C 43.269531 29.996094 49.089844 24.179688 49.089844 17.003906 C 49.089844 9.828125 43.269531 4.007812 36.09375 4.007812 Z M 36.09375 4.007812 " clip-rule="nonzero"/></clipPath><clipPath id="8b5986110a"><path d="M 30.738281 9.125 L 41.085938 9.125 L 41.085938 24.648438 L 30.738281 24.648438 Z M 30.738281 9.125 " clip-rule="nonzero"/></clipPath></defs><g clip-path="url(#32f5566e7f)"><g clip-path="url(#4e6e7f1d93)"><path fill="#ffde59" d="M 23.101562 4.007812 L 49.089844 4.007812 L 49.089844 29.996094 L 23.101562 29.996094 Z M 23.101562 4.007812 " fill-opacity="1" fill-rule="nonzero"/></g></g><g clip-path="url(#8b5986110a)"><path fill="#000000" d="M 37.617188 19.277344 C 37.085938 19.429688 36.558594 19.027344 36.558594 18.472656 L 36.558594 9.957031 C 36.558594 9.480469 37 9.125 37.464844 9.234375 C 39.746094 9.769531 41.453125 11.824219 41.453125 14.269531 C 41.453125 16.640625 39.855469 18.640625 37.617188 19.277344 Z M 35.625 19.730469 L 35.625 9.957031 C 35.625 9.480469 35.179688 9.125 34.71875 9.234375 C 32.433594 9.769531 30.730469 11.824219 30.730469 14.269531 L 30.730469 24.226562 C 30.730469 24.601562 31.070312 24.878906 31.4375 24.808594 C 33.820312 24.347656 35.625 22.246094 35.625 19.730469 Z M 35.625 19.730469 " fill-opacity="1" fill-rule="nonzero"/></g><g fill="#ff66c4" fill-opacity="1"><g transform="translate(60.41851, 16.241908)"><g><path d="M 3.542969 -6.769531 L 0.664062 -6.769531 L 0.664062 0 L 2.15625 0 L 2.15625 -2.742188 L 3.542969 -2.742188 C 4.683594 -2.742188 5.5625 -3.585938 5.5625 -4.726562 C 5.5625 -5.855469 4.683594 -6.769531 3.542969 -6.769531 Z M 3.304688 -3.972656 L 2.15625 -3.972656 L 2.15625 -5.460938 L 3.304688 -5.460938 C 3.78125 -5.460938 4.140625 -5.15625 4.140625 -4.714844 C 4.140625 -4.265625 3.78125 -3.972656 3.304688 -3.972656 Z M 3.304688 -3.972656 "/></g></g></g><g fill="#ff66c4" fill-opacity="1"><g transform="translate(65.845322, 16.241908)"><g><path d="M 3.375 -4.601562 C 2.84375 -4.601562 2.402344 -4.332031 2.109375 -3.890625 L 2.109375 -4.511719 L 0.664062 -4.511719 L 0.664062 0 L 2.109375 0 L 2.109375 -2.15625 C 2.109375 -2.898438 2.617188 -3.328125 3.328125 -3.328125 C 3.496094 -3.328125 3.644531 -3.304688 3.746094 -3.28125 L 3.746094 -4.558594 C 3.644531 -4.59375 3.507812 -4.601562 3.375 -4.601562 Z M 3.375 -4.601562 "/></g></g></g><g fill="#ff66c4" fill-opacity="1"><g transform="translate(69.387982, 16.241908)"><g><path d="M 2.867188 0.0898438 C 4.378906 0.0898438 5.371094 -0.902344 5.371094 -2.257812 C 5.371094 -3.609375 4.378906 -4.601562 2.867188 -4.601562 C 1.355469 -4.601562 0.351562 -3.609375 0.351562 -2.257812 C 0.351562 -0.902344 1.355469 0.0898438 2.867188 0.0898438 Z M 2.867188 -1.183594 C 2.246094 -1.195312 1.792969 -1.648438 1.792969 -2.257812 C 1.792969 -2.867188 2.246094 -3.316406 2.867188 -3.328125 C 3.476562 -3.316406 3.9375 -2.867188 3.9375 -2.257812 C 3.9375 -1.648438 3.476562 -1.195312 2.867188 -1.183594 Z M 2.867188 -1.183594 "/></g></g></g><g fill="#ff66c4" fill-opacity="1"><g transform="translate(74.938903, 16.241908)"><g><path d="M 0.664062 0 L 2.898438 0 C 4.761719 0 6.285156 -1.511719 6.285156 -3.382812 C 6.285156 -5.257812 4.761719 -6.769531 2.898438 -6.769531 L 0.664062 -6.769531 Z M 2.15625 -1.320312 L 2.15625 -5.449219 L 2.886719 -5.449219 C 3.960938 -5.449219 4.796875 -4.558594 4.796875 -3.382812 C 4.796875 -2.210938 3.960938 -1.320312 2.886719 -1.320312 Z M 2.15625 -1.320312 "/></g></g></g><g fill="#ff66c4" fill-opacity="1"><g transform="translate(81.460104, 16.241908)"><g><path d="M 5.257812 -2.269531 C 5.257812 -3.679688 4.289062 -4.613281 2.832031 -4.613281 C 1.375 -4.613281 0.351562 -3.667969 0.351562 -2.257812 C 0.351562 -0.847656 1.363281 0.0898438 2.878906 0.0898438 C 4.128906 0.0898438 4.964844 -0.574219 5.191406 -1.558594 L 3.800781 -1.558594 C 3.679688 -1.195312 3.351562 -0.980469 2.855469 -0.980469 C 2.199219 -0.980469 1.863281 -1.375 1.804688 -2.019531 L 5.257812 -2.019531 Z M 2.855469 -3.507812 C 3.339844 -3.507812 3.621094 -3.28125 3.769531 -2.886719 L 1.894531 -2.886719 C 2.042969 -3.273438 2.347656 -3.507812 2.855469 -3.507812 Z M 2.855469 -3.507812 "/></g></g></g><g fill="#ff66c4" fill-opacity="1"><g transform="translate(86.875633, 16.241908)"><g><path d="M 3.382812 -4.511719 L 2.4375 -1.546875 L 1.476562 -4.511719 L -0.0546875 -4.511719 L 1.75 0 L 3.101562 0 L 4.929688 -4.511719 Z M 3.382812 -4.511719 "/></g></g></g><g fill="#ff66c4" fill-opacity="1"><g transform="translate(91.569092, 16.241908)"><g><path d="M 3.890625 0.0898438 C 5.820312 0.0898438 7.367188 -1.464844 7.367188 -3.382812 C 7.367188 -5.300781 5.820312 -6.859375 3.890625 -6.859375 C 1.972656 -6.859375 0.417969 -5.300781 0.417969 -3.382812 C 0.417969 -1.464844 1.972656 0.0898438 3.890625 0.0898438 Z M 3.890625 -1.363281 C 2.753906 -1.363281 1.882812 -2.246094 1.882812 -3.382812 C 1.882812 -4.523438 2.753906 -5.402344 3.890625 -5.402344 C 5.042969 -5.402344 5.910156 -4.523438 5.910156 -3.382812 C 5.910156 -2.246094 5.042969 -1.363281 3.890625 -1.363281 Z M 3.890625 -1.363281 "/></g></g></g><g fill="#ff66c4" fill-opacity="1"><g transform="translate(99.184683, 16.241908)"><g><path d="M 3.394531 -4.601562 C 2.878906 -4.601562 2.449219 -4.421875 2.109375 -4.117188 L 2.109375 -4.5 L 0.664062 -4.511719 L 0.664062 2.707031 L 2.109375 2.71875 L 2.109375 -0.394531 C 2.449219 -0.0898438 2.878906 0.0898438 3.394531 0.0898438 C 4.636719 0.0898438 5.617188 -0.949219 5.617188 -2.257812 C 5.617188 -3.566406 4.636719 -4.601562 3.394531 -4.601562 Z M 3.113281 -1.183594 C 2.515625 -1.183594 2.042969 -1.660156 2.042969 -2.257812 C 2.042969 -2.855469 2.515625 -3.328125 3.113281 -3.328125 C 3.710938 -3.328125 4.1875 -2.855469 4.1875 -2.257812 C 4.1875 -1.660156 3.710938 -1.183594 3.113281 -1.183594 Z M 3.113281 -1.183594 "/></g></g></g><g fill="#ff66c4" fill-opacity="1"><g transform="translate(104.972528, 16.241908)"><g><path d="M 2.121094 0.0898438 C 3.136719 0.0898438 3.757812 -0.53125 3.757812 -1.375 C 3.757812 -2.277344 3.011719 -2.640625 2.371094 -2.886719 C 2.042969 -3.023438 1.882812 -3.089844 1.882812 -3.261719 C 1.882812 -3.40625 1.996094 -3.519531 2.246094 -3.519531 C 2.539062 -3.519531 2.808594 -3.363281 2.945312 -3.191406 L 3.667969 -4.003906 C 3.328125 -4.34375 2.777344 -4.601562 2.144531 -4.601562 C 1.117188 -4.601562 0.460938 -3.925781 0.460938 -3.160156 C 0.460938 -2.257812 1.363281 -1.953125 1.882812 -1.761719 C 2.289062 -1.601562 2.425781 -1.488281 2.425781 -1.332031 C 2.425781 -1.152344 2.269531 -1.050781 2.03125 -1.050781 C 1.792969 -1.050781 1.476562 -1.140625 1.273438 -1.523438 L 0.214844 -0.992188 C 0.484375 -0.292969 1.320312 0.0898438 2.121094 0.0898438 Z M 2.121094 0.0898438 "/></g></g></g><g fill="#ff66c4" fill-opacity="1"><g transform="translate(108.763398, 16.241908)"><g><path d="M 3.890625 -3.710938 L 3.890625 -2.550781 L 5.753906 -2.550781 C 5.4375 -1.839844 4.738281 -1.363281 3.902344 -1.363281 C 2.765625 -1.363281 1.882812 -2.246094 1.882812 -3.382812 C 1.882812 -4.523438 2.765625 -5.402344 3.902344 -5.402344 C 4.703125 -5.402344 5.359375 -4.976562 5.699219 -4.332031 L 6.984375 -5 C 6.398438 -6.105469 5.234375 -6.859375 3.902344 -6.859375 C 1.972656 -6.859375 0.429688 -5.300781 0.429688 -3.382812 C 0.429688 -1.464844 1.972656 0.0898438 3.902344 0.0898438 C 5.820312 0.0898438 7.378906 -1.464844 7.378906 -3.382812 L 7.378906 -3.710938 Z M 3.890625 -3.710938 "/></g></g></g><g fill="#ff66c4" fill-opacity="1"><g transform="translate(116.390273, 16.241908)"><g><path d="M 2.683594 0.0898438 C 4.050781 0.0898438 4.804688 -0.621094 4.804688 -1.726562 L 4.804688 -4.511719 L 3.375 -4.511719 L 3.375 -1.917969 C 3.375 -1.488281 3.082031 -1.183594 2.683594 -1.183594 C 2.300781 -1.183594 2.007812 -1.488281 2.007812 -1.917969 L 2.007812 -4.511719 L 0.5625 -4.511719 L 0.5625 -1.726562 C 0.5625 -0.621094 1.320312 0.0898438 2.683594 0.0898438 Z M 2.683594 0.0898438 "/></g></g></g><g fill="#ff66c4" fill-opacity="1"><g transform="translate(121.591433, 16.241908)"><g><path d="M 3.679688 -4.511719 L 2.574219 -1.523438 L 1.445312 -4.511719 L -0.0546875 -4.511719 L 1.828125 0.101562 L 0.765625 2.707031 L 2.277344 2.707031 L 5.167969 -4.511719 Z M 3.679688 -4.511719 "/></g></g></g><g fill="#ff66c4" fill-opacity="1"><g transform="translate(66.814001, 24.050884)"><g><path d="M 1.21875 -2.234375 C 1.507812 -2.234375 1.734375 -2.160156 1.890625 -2.015625 C 2.046875 -1.878906 2.140625 -1.703125 2.171875 -1.484375 L 2.171875 -1.453125 L 1.734375 -1.453125 L 1.71875 -1.484375 C 1.664062 -1.765625 1.5 -1.90625 1.21875 -1.90625 C 1.039062 -1.90625 0.894531 -1.832031 0.78125 -1.6875 C 0.675781 -1.550781 0.625 -1.359375 0.625 -1.109375 C 0.625 -0.835938 0.675781 -0.628906 0.78125 -0.484375 C 0.894531 -0.347656 1.035156 -0.28125 1.203125 -0.28125 C 1.347656 -0.28125 1.460938 -0.316406 1.546875 -0.390625 C 1.628906 -0.472656 1.6875 -0.582031 1.71875 -0.71875 L 1.71875 -0.765625 L 2.15625 -0.765625 L 2.15625 -0.71875 C 2.132812 -0.488281 2.035156 -0.300781 1.859375 -0.15625 C 1.691406 -0.0195312 1.46875 0.046875 1.1875 0.046875 C 0.875 0.046875 0.625 -0.0507812 0.4375 -0.25 C 0.25 -0.457031 0.15625 -0.734375 0.15625 -1.078125 C 0.15625 -1.429688 0.253906 -1.710938 0.453125 -1.921875 C 0.660156 -2.128906 0.914062 -2.234375 1.21875 -2.234375 Z M 1.21875 -2.234375 "/></g></g></g><g fill="#ff66c4" fill-opacity="1"><g transform="translate(69.471997, 24.050884)"><g><path d="M 1.859375 -0.359375 L 1.859375 0 L 0.28125 0 L 0.28125 -2.1875 L 0.71875 -2.1875 L 0.71875 -0.359375 Z M 1.859375 -0.359375 "/></g></g></g><g fill="#ff66c4" fill-opacity="1"><g transform="translate(71.768404, 24.050884)"><g><path d="M 1.25 -2.234375 C 1.582031 -2.234375 1.84375 -2.128906 2.03125 -1.921875 C 2.226562 -1.710938 2.328125 -1.4375 2.328125 -1.09375 C 2.328125 -0.75 2.226562 -0.472656 2.03125 -0.265625 C 1.84375 -0.0546875 1.582031 0.046875 1.25 0.046875 C 0.914062 0.046875 0.648438 -0.0546875 0.453125 -0.265625 C 0.253906 -0.472656 0.15625 -0.75 0.15625 -1.09375 C 0.15625 -1.4375 0.25 -1.710938 0.4375 -1.921875 C 0.632812 -2.128906 0.90625 -2.234375 1.25 -2.234375 Z M 0.78125 -0.484375 C 0.894531 -0.347656 1.046875 -0.28125 1.234375 -0.28125 C 1.429688 -0.28125 1.582031 -0.351562 1.6875 -0.5 C 1.800781 -0.644531 1.859375 -0.84375 1.859375 -1.09375 C 1.859375 -1.351562 1.800781 -1.550781 1.6875 -1.6875 C 1.582031 -1.832031 1.4375 -1.90625 1.25 -1.90625 C 1.050781 -1.90625 0.894531 -1.832031 0.78125 -1.6875 C 0.675781 -1.550781 0.625 -1.351562 0.625 -1.09375 C 0.625 -0.832031 0.675781 -0.628906 0.78125 -0.484375 Z M 0.78125 -0.484375 "/></g></g></g><g fill="#ff66c4" fill-opacity="1"><g transform="translate(74.575478, 24.050884)"><g><path d="M 2.0625 -2.1875 L 2.0625 -0.890625 C 2.0625 -0.785156 2.054688 -0.703125 2.046875 -0.640625 C 2.035156 -0.441406 1.957031 -0.273438 1.8125 -0.140625 C 1.664062 -0.015625 1.445312 0.046875 1.15625 0.046875 C 0.863281 0.046875 0.644531 -0.015625 0.5 -0.140625 C 0.351562 -0.273438 0.273438 -0.441406 0.265625 -0.640625 C 0.253906 -0.703125 0.25 -0.785156 0.25 -0.890625 L 0.25 -2.1875 L 0.6875 -2.1875 L 0.6875 -0.84375 C 0.6875 -0.769531 0.6875 -0.71875 0.6875 -0.6875 C 0.695312 -0.5625 0.738281 -0.460938 0.8125 -0.390625 C 0.894531 -0.316406 1.007812 -0.28125 1.15625 -0.28125 C 1.300781 -0.28125 1.410156 -0.316406 1.484375 -0.390625 C 1.566406 -0.460938 1.613281 -0.5625 1.625 -0.6875 C 1.625 -0.71875 1.625 -0.769531 1.625 -0.84375 L 1.625 -2.1875 Z M 2.0625 -2.1875 "/></g></g></g><g fill="#ff66c4" fill-opacity="1"><g transform="translate(77.182725, 24.050884)"><g><path d="M 1.3125 -2.171875 C 1.582031 -2.140625 1.800781 -2.035156 1.96875 -1.859375 C 2.132812 -1.691406 2.21875 -1.445312 2.21875 -1.125 C 2.21875 -0.800781 2.128906 -0.539062 1.953125 -0.34375 C 1.785156 -0.15625 1.570312 -0.046875 1.3125 -0.015625 C 1.238281 -0.00390625 1.144531 0 1.03125 0 L 0.28125 0 L 0.28125 -2.1875 L 1.03125 -2.1875 C 1.144531 -2.1875 1.238281 -2.179688 1.3125 -2.171875 Z M 1.21875 -0.359375 C 1.382812 -0.378906 1.515625 -0.453125 1.609375 -0.578125 C 1.703125 -0.710938 1.75 -0.890625 1.75 -1.109375 C 1.75 -1.328125 1.703125 -1.492188 1.609375 -1.609375 C 1.515625 -1.734375 1.382812 -1.804688 1.21875 -1.828125 C 1.15625 -1.835938 1.078125 -1.84375 0.984375 -1.84375 L 0.71875 -1.84375 L 0.71875 -0.34375 L 0.984375 -0.34375 C 1.085938 -0.34375 1.164062 -0.347656 1.21875 -0.359375 Z M 1.21875 -0.359375 "/></g></g></g><g fill="#ff66c4" fill-opacity="1"><g transform="translate(79.881957, 24.050884)"><g><path d="M 0.25 0.09375 L -0.015625 0.09375 L 0.78125 -2.28125 L 1.046875 -2.28125 Z M 0.25 0.09375 "/></g></g></g><g fill="#ff66c4" fill-opacity="1"><g transform="translate(81.299765, 24.050884)"><g><path d="M 1.3125 -2.171875 C 1.582031 -2.140625 1.800781 -2.035156 1.96875 -1.859375 C 2.132812 -1.691406 2.21875 -1.445312 2.21875 -1.125 C 2.21875 -0.800781 2.128906 -0.539062 1.953125 -0.34375 C 1.785156 -0.15625 1.570312 -0.046875 1.3125 -0.015625 C 1.238281 -0.00390625 1.144531 0 1.03125 0 L 0.28125 0 L 0.28125 -2.1875 L 1.03125 -2.1875 C 1.144531 -2.1875 1.238281 -2.179688 1.3125 -2.171875 Z M 1.21875 -0.359375 C 1.382812 -0.378906 1.515625 -0.453125 1.609375 -0.578125 C 1.703125 -0.710938 1.75 -0.890625 1.75 -1.109375 C 1.75 -1.328125 1.703125 -1.492188 1.609375 -1.609375 C 1.515625 -1.734375 1.382812 -1.804688 1.21875 -1.828125 C 1.15625 -1.835938 1.078125 -1.84375 0.984375 -1.84375 L 0.71875 -1.84375 L 0.71875 -0.34375 L 0.984375 -0.34375 C 1.085938 -0.34375 1.164062 -0.347656 1.21875 -0.359375 Z M 1.21875 -0.359375 "/></g></g></g><g fill="#ff66c4" fill-opacity="1"><g transform="translate(83.998996, 24.050884)"><g><path d="M 1.859375 -0.34375 L 1.859375 0 L 0.28125 0 L 0.28125 -2.1875 L 1.828125 -2.1875 L 1.828125 -1.84375 L 0.71875 -1.84375 L 0.71875 -1.265625 L 1.75 -1.265625 L 1.75 -0.921875 L 0.71875 -0.921875 L 0.71875 -0.34375 Z M 1.859375 -0.34375 "/></g></g></g><g fill="#ff66c4" fill-opacity="1"><g transform="translate(86.333467, 24.050884)"><g><path d="M 1.421875 0 L 0.875 0 L 0.09375 -2.1875 L 0.578125 -2.1875 L 1.15625 -0.34375 L 1.75 -2.1875 L 2.21875 -2.1875 Z M 1.421875 0 "/></g></g></g><g fill="#ff66c4" fill-opacity="1"><g transform="translate(88.89631, 24.050884)"><g><path d="M 1.25 -2.234375 C 1.582031 -2.234375 1.84375 -2.128906 2.03125 -1.921875 C 2.226562 -1.710938 2.328125 -1.4375 2.328125 -1.09375 C 2.328125 -0.75 2.226562 -0.472656 2.03125 -0.265625 C 1.84375 -0.0546875 1.582031 0.046875 1.25 0.046875 C 0.914062 0.046875 0.648438 -0.0546875 0.453125 -0.265625 C 0.253906 -0.472656 0.15625 -0.75 0.15625 -1.09375 C 0.15625 -1.4375 0.25 -1.710938 0.4375 -1.921875 C 0.632812 -2.128906 0.90625 -2.234375 1.25 -2.234375 Z M 0.78125 -0.484375 C 0.894531 -0.347656 1.046875 -0.28125 1.234375 -0.28125 C 1.429688 -0.28125 1.582031 -0.351562 1.6875 -0.5 C 1.800781 -0.644531 1.859375 -0.84375 1.859375 -1.09375 C 1.859375 -1.351562 1.800781 -1.550781 1.6875 -1.6875 C 1.582031 -1.832031 1.4375 -1.90625 1.25 -1.90625 C 1.050781 -1.90625 0.894531 -1.832031 0.78125 -1.6875 C 0.675781 -1.550781 0.625 -1.351562 0.625 -1.09375 C 0.625 -0.832031 0.675781 -0.628906 0.78125 -0.484375 Z M 0.78125 -0.484375 "/></g></g></g><g fill="#ff66c4" fill-opacity="1"><g transform="translate(91.703385, 24.050884)"><g><path d="M 1.359375 -2.171875 C 1.535156 -2.148438 1.675781 -2.082031 1.78125 -1.96875 C 1.894531 -1.851562 1.953125 -1.695312 1.953125 -1.5 C 1.953125 -1.3125 1.894531 -1.160156 1.78125 -1.046875 C 1.664062 -0.929688 1.523438 -0.863281 1.359375 -0.84375 C 1.265625 -0.832031 1.160156 -0.828125 1.046875 -0.828125 L 0.71875 -0.828125 L 0.71875 0 L 0.28125 0 L 0.28125 -2.1875 L 1.046875 -2.1875 C 1.160156 -2.1875 1.265625 -2.179688 1.359375 -2.171875 Z M 1.234375 -1.1875 C 1.398438 -1.207031 1.484375 -1.3125 1.484375 -1.5 C 1.484375 -1.695312 1.398438 -1.804688 1.234375 -1.828125 C 1.179688 -1.835938 1.113281 -1.84375 1.03125 -1.84375 L 0.71875 -1.84375 L 0.71875 -1.171875 L 1.03125 -1.171875 C 1.113281 -1.171875 1.179688 -1.175781 1.234375 -1.1875 Z M 1.234375 -1.1875 "/></g></g></g><g fill="#ff66c4" fill-opacity="1"><g transform="translate(94.060059, 24.050884)"><g><path d="M 1.015625 -2.234375 C 1.265625 -2.234375 1.453125 -2.171875 1.578125 -2.046875 C 1.710938 -1.921875 1.789062 -1.753906 1.8125 -1.546875 L 1.375 -1.546875 C 1.351562 -1.660156 1.3125 -1.75 1.25 -1.8125 C 1.1875 -1.875 1.101562 -1.90625 1 -1.90625 C 0.90625 -1.90625 0.828125 -1.878906 0.765625 -1.828125 C 0.710938 -1.785156 0.6875 -1.722656 0.6875 -1.640625 C 0.6875 -1.546875 0.71875 -1.472656 0.78125 -1.421875 C 0.851562 -1.367188 0.976562 -1.320312 1.15625 -1.28125 C 1.394531 -1.226562 1.566406 -1.144531 1.671875 -1.03125 C 1.785156 -0.925781 1.84375 -0.785156 1.84375 -0.609375 C 1.84375 -0.398438 1.765625 -0.238281 1.609375 -0.125 C 1.453125 -0.0078125 1.265625 0.046875 1.046875 0.046875 C 0.773438 0.046875 0.5625 -0.0078125 0.40625 -0.125 C 0.25 -0.25 0.160156 -0.421875 0.140625 -0.640625 L 0.578125 -0.640625 C 0.597656 -0.523438 0.648438 -0.4375 0.734375 -0.375 C 0.816406 -0.3125 0.914062 -0.28125 1.03125 -0.28125 C 1.132812 -0.28125 1.21875 -0.304688 1.28125 -0.359375 C 1.351562 -0.410156 1.390625 -0.476562 1.390625 -0.5625 C 1.390625 -0.65625 1.351562 -0.726562 1.28125 -0.78125 C 1.21875 -0.84375 1.109375 -0.890625 0.953125 -0.921875 C 0.710938 -0.984375 0.53125 -1.0625 0.40625 -1.15625 C 0.28125 -1.257812 0.21875 -1.40625 0.21875 -1.59375 C 0.21875 -1.789062 0.296875 -1.945312 0.453125 -2.0625 C 0.609375 -2.175781 0.796875 -2.234375 1.015625 -2.234375 Z M 1.015625 -2.234375 "/></g></g></g><g fill="#ff66c4" fill-opacity="1"><g transform="translate(96.369154, 24.050884)"><g/></g></g><g fill="#ff66c4" fill-opacity="1"><g transform="translate(97.36511, 24.050884)"><g><path d="M 1.21875 -2.234375 C 1.507812 -2.234375 1.734375 -2.160156 1.890625 -2.015625 C 2.046875 -1.878906 2.140625 -1.703125 2.171875 -1.484375 L 2.171875 -1.453125 L 1.734375 -1.453125 L 1.71875 -1.484375 C 1.664062 -1.765625 1.5 -1.90625 1.21875 -1.90625 C 1.039062 -1.90625 0.894531 -1.832031 0.78125 -1.6875 C 0.675781 -1.550781 0.625 -1.359375 0.625 -1.109375 C 0.625 -0.835938 0.675781 -0.628906 0.78125 -0.484375 C 0.894531 -0.347656 1.035156 -0.28125 1.203125 -0.28125 C 1.347656 -0.28125 1.460938 -0.316406 1.546875 -0.390625 C 1.628906 -0.472656 1.6875 -0.582031 1.71875 -0.71875 L 1.71875 -0.765625 L 2.15625 -0.765625 L 2.15625 -0.71875 C 2.132812 -0.488281 2.035156 -0.300781 1.859375 -0.15625 C 1.691406 -0.0195312 1.46875 0.046875 1.1875 0.046875 C 0.875 0.046875 0.625 -0.0507812 0.4375 -0.25 C 0.25 -0.457031 0.15625 -0.734375 0.15625 -1.078125 C 0.15625 -1.429688 0.253906 -1.710938 0.453125 -1.921875 C 0.660156 -2.128906 0.914062 -2.234375 1.21875 -2.234375 Z M 1.21875 -2.234375 "/></g></g></g><g fill="#ff66c4" fill-opacity="1"><g transform="translate(100.023106, 24.050884)"><g><path d="M 1.25 -2.234375 C 1.582031 -2.234375 1.84375 -2.128906 2.03125 -1.921875 C 2.226562 -1.710938 2.328125 -1.4375 2.328125 -1.09375 C 2.328125 -0.75 2.226562 -0.472656 2.03125 -0.265625 C 1.84375 -0.0546875 1.582031 0.046875 1.25 0.046875 C 0.914062 0.046875 0.648438 -0.0546875 0.453125 -0.265625 C 0.253906 -0.472656 0.15625 -0.75 0.15625 -1.09375 C 0.15625 -1.4375 0.25 -1.710938 0.4375 -1.921875 C 0.632812 -2.128906 0.90625 -2.234375 1.25 -2.234375 Z M 0.78125 -0.484375 C 0.894531 -0.347656 1.046875 -0.28125 1.234375 -0.28125 C 1.429688 -0.28125 1.582031 -0.351562 1.6875 -0.5 C 1.800781 -0.644531 1.859375 -0.84375 1.859375 -1.09375 C 1.859375 -1.351562 1.800781 -1.550781 1.6875 -1.6875 C 1.582031 -1.832031 1.4375 -1.90625 1.25 -1.90625 C 1.050781 -1.90625 0.894531 -1.832031 0.78125 -1.6875 C 0.675781 -1.550781 0.625 -1.351562 0.625 -1.09375 C 0.625 -0.832031 0.675781 -0.628906 0.78125 -0.484375 Z M 0.78125 -0.484375 "/></g></g></g><g fill="#ff66c4" fill-opacity="1"><g transform="translate(102.830181, 24.050884)"><g><path d="M 2.640625 -2.1875 L 2.640625 0 L 2.203125 0 L 2.203125 -1.015625 C 2.203125 -1.359375 2.203125 -1.609375 2.203125 -1.765625 C 2.148438 -1.503906 2.085938 -1.253906 2.015625 -1.015625 L 1.703125 0 L 1.21875 0 L 0.90625 -1.015625 C 0.832031 -1.285156 0.769531 -1.53125 0.71875 -1.75 C 0.71875 -1.601562 0.71875 -1.359375 0.71875 -1.015625 L 0.71875 0 L 0.28125 0 L 0.28125 -2.1875 L 0.96875 -2.1875 L 1.46875 -0.40625 L 1.96875 -2.1875 Z M 2.640625 -2.1875 "/></g></g></g><g fill="#ff66c4" fill-opacity="1"><g transform="translate(106.055936, 24.050884)"><g><path d="M 2.640625 -2.1875 L 2.640625 0 L 2.203125 0 L 2.203125 -1.015625 C 2.203125 -1.359375 2.203125 -1.609375 2.203125 -1.765625 C 2.148438 -1.503906 2.085938 -1.253906 2.015625 -1.015625 L 1.703125 0 L 1.21875 0 L 0.90625 -1.015625 C 0.832031 -1.285156 0.769531 -1.53125 0.71875 -1.75 C 0.71875 -1.601562 0.71875 -1.359375 0.71875 -1.015625 L 0.71875 0 L 0.28125 0 L 0.28125 -2.1875 L 0.96875 -2.1875 L 1.46875 -0.40625 L 1.96875 -2.1875 Z M 2.640625 -2.1875 "/></g></g></g><g fill="#ff66c4" fill-opacity="1"><g transform="translate(109.28169, 24.050884)"><g><path d="M 2.0625 -2.1875 L 2.0625 -0.890625 C 2.0625 -0.785156 2.054688 -0.703125 2.046875 -0.640625 C 2.035156 -0.441406 1.957031 -0.273438 1.8125 -0.140625 C 1.664062 -0.015625 1.445312 0.046875 1.15625 0.046875 C 0.863281 0.046875 0.644531 -0.015625 0.5 -0.140625 C 0.351562 -0.273438 0.273438 -0.441406 0.265625 -0.640625 C 0.253906 -0.703125 0.25 -0.785156 0.25 -0.890625 L 0.25 -2.1875 L 0.6875 -2.1875 L 0.6875 -0.84375 C 0.6875 -0.769531 0.6875 -0.71875 0.6875 -0.6875 C 0.695312 -0.5625 0.738281 -0.460938 0.8125 -0.390625 C 0.894531 -0.316406 1.007812 -0.28125 1.15625 -0.28125 C 1.300781 -0.28125 1.410156 -0.316406 1.484375 -0.390625 C 1.566406 -0.460938 1.613281 -0.5625 1.625 -0.6875 C 1.625 -0.71875 1.625 -0.769531 1.625 -0.84375 L 1.625 -2.1875 Z M 2.0625 -2.1875 "/></g></g></g><g fill="#ff66c4" fill-opacity="1"><g transform="translate(111.888937, 24.050884)"><g><path d="M 2.203125 0 L 1.609375 0 L 0.703125 -1.65625 C 0.710938 -1.457031 0.71875 -1.234375 0.71875 -0.984375 L 0.71875 0 L 0.28125 0 L 0.28125 -2.1875 L 0.859375 -2.1875 L 1.78125 -0.5 C 1.769531 -0.695312 1.765625 -0.925781 1.765625 -1.1875 L 1.765625 -2.1875 L 2.203125 -2.1875 Z M 2.203125 0 "/></g></g></g><g fill="#ff66c4" fill-opacity="1"><g transform="translate(114.680154, 24.050884)"><g><path d="M 0.71875 0 L 0.28125 0 L 0.28125 -2.1875 L 0.71875 -2.1875 Z M 0.71875 0 "/></g></g></g><g fill="#ff66c4" fill-opacity="1"><g transform="translate(115.986949, 24.050884)"><g><path d="M 2 -1.84375 L 1.25 -1.84375 L 1.25 0 L 0.8125 0 L 0.8125 -1.84375 L 0.078125 -1.84375 L 0.078125 -2.1875 L 2 -2.1875 Z M 2 -1.84375 "/></g></g></g><g fill="#ff66c4" fill-opacity="1"><g transform="translate(118.343624, 24.050884)"><g><path d="M 1.265625 -0.84375 L 1.265625 0 L 0.828125 0 L 0.828125 -0.84375 L 0.046875 -2.1875 L 0.546875 -2.1875 L 1.0625 -1.234375 L 1.546875 -2.1875 L 2.03125 -2.1875 Z M 1.265625 -0.84375 "/></g></g></g></svg>